<svg xmlns="http://www.w3.org/2000/svg" width="200" height="200" viewBox="0 0 200 200"><rect width="100%" height="100%" fill="#FFFFFF"/><path fill="#808080" d="M44.395 104.94h8.38v3.22h-12.28V87.19h3.9v17.75Zm17.18-11.89q1.65 0 3.01.54 1.35.53 2.32 1.52.96.99 1.48 2.41.53 1.42.53 3.17 0 1.77-.53 3.19-.52 1.42-1.48 2.42-.97 1-2.32 1.54-1.36.54-3.01.54-1.67 0-3.03-.54-1.36-.54-2.33-1.54-.96-1-1.49-2.42t-.53-3.19q0-1.75.53-3.17t1.49-2.41q.97-.99 2.33-1.52 1.36-.54 3.03-.54Zm0 12.57q1.85 0 2.75-1.24.89-1.25.89-3.66t-.89-3.67q-.9-1.26-2.75-1.26-1.89 0-2.79 1.27-.91 1.27-.91 3.66t.91 3.65q.9 1.25 2.79 1.25Zm17.94-1.3v-2.51q-1.56.07-2.61.27-1.06.19-1.7.5-.64.3-.91.71-.28.4-.28.88 0 .94.56 1.35.56.41 1.46.41 1.1 0 1.9-.4.81-.4 1.58-1.21Zm-7.57-7.82-.64-1.14q2.56-2.35 6.18-2.35 1.3 0 2.33.43 1.03.42 1.74 1.18.71.77 1.08 1.82.37 1.06.37 2.32v9.4h-1.62q-.51 0-.79-.15-.27-.15-.43-.62l-.32-1.07q-.57.51-1.1.89-.54.38-1.12.65-.58.26-1.24.39-.66.14-1.46.14-.94 0-1.74-.25-.79-.26-1.37-.76-.58-.51-.9-1.26-.32-.76-.32-1.76 0-.56.19-1.12.18-.56.61-1.07t1.11-.96q.68-.45 1.68-.78.99-.33 2.31-.54 1.32-.21 3.02-.26v-.87q0-1.49-.64-2.21t-1.84-.72q-.87 0-1.45.21-.57.2-1 .45-.44.26-.79.46-.36.2-.8.2-.37 0-.63-.19-.26-.2-.42-.46Zm23.76 7.25v-6.67q-.61-.74-1.32-1.04-.72-.31-1.55-.31-.81 0-1.46.31-.66.3-1.12.92-.46.61-.71 1.56-.25.95-.25 2.24 0 1.31.21 2.22.21.9.6 1.48.4.57.96.82.57.26 1.26.26 1.12 0 1.9-.47.79-.46 1.48-1.32Zm0-17.14h3.58v21.55h-2.19q-.71 0-.9-.65l-.3-1.44q-.9 1.03-2.07 1.67-1.16.64-2.71.64-1.22 0-2.24-.51-1.01-.51-1.74-1.47-.74-.97-1.14-2.39-.39-1.42-.39-3.25 0-1.65.44-3.07.45-1.42 1.3-2.46.84-1.05 2.01-1.64 1.18-.58 2.64-.58 1.25 0 2.13.39.89.39 1.58 1.06v-7.85Zm7.24 6.67h3.59v14.88h-3.59V93.28Zm4.09-4.33q0 .46-.19.87-.19.4-.5.71-.31.3-.73.48-.43.19-.9.19-.47 0-.88-.19-.41-.18-.72-.48-.3-.31-.48-.71-.19-.41-.19-.87 0-.48.19-.9.18-.42.48-.73.31-.3.72-.48t.88-.18q.47 0 .9.18.42.18.73.48.31.31.5.73t.19.9Zm6.26 4.99.25 1.17q.45-.45.95-.83.5-.39 1.06-.66.55-.26 1.19-.42.64-.15 1.39-.15 1.22 0 2.16.41.95.42 1.58 1.16.63.75.95 1.79.33 1.03.33 2.28v9.47h-3.58v-9.47q0-1.36-.62-2.11-.63-.75-1.9-.75-.93 0-1.74.43-.82.42-1.54 1.14v10.76h-3.58V93.28h2.19q.69 0 .91.66Zm18.69 6.42q.67 0 1.16-.18.49-.18.82-.5.33-.32.49-.77.17-.45.17-.99 0-1.1-.66-1.74-.66-.65-1.98-.65-1.32 0-1.98.65-.66.64-.66 1.74 0 .53.17.97.17.45.49.78.33.33.83.51.5.18 1.15.18Zm4.05 8.47q0-.44-.26-.71-.27-.28-.72-.43-.44-.15-1.05-.23-.6-.07-1.27-.1-.68-.04-1.39-.07-.72-.03-1.4-.12-.6.34-.97.79t-.37 1.04q0 .39.2.73.19.34.62.59.43.25 1.11.38.68.14 1.67.14 1 0 1.72-.15.73-.15 1.2-.42t.69-.64q.22-.37.22-.8Zm-.71-15.04h4.27v1.33q0 .64-.77.79l-1.33.24q.31.77.31 1.69 0 1.1-.45 1.99-.44.89-1.22 1.51-.79.63-1.85.97-1.07.34-2.3.34-.43 0-.84-.04-.41-.05-.8-.12-.69.42-.69.94 0 .45.41.66.41.21 1.09.3.69.09 1.56.11.87.02 1.78.09.91.08 1.78.26t1.55.57q.69.39 1.1 1.07.41.67.41 1.73 0 .98-.48 1.91-.49.93-1.41 1.66-.92.72-2.26 1.16-1.34.44-3.05.44-1.69 0-2.93-.32-1.25-.33-2.08-.87-.82-.55-1.23-1.26-.41-.71-.41-1.47 0-1.05.64-1.75.63-.71 1.73-1.13-.6-.3-.94-.81-.35-.51-.35-1.33 0-.34.12-.69.12-.36.36-.7.24-.35.61-.66.36-.32.85-.56-1.13-.61-1.78-1.63-.64-1.01-.64-2.37 0-1.11.44-2 .44-.89 1.23-1.52t1.87-.96q1.08-.34 2.36-.34.96 0 1.8.2.84.19 1.54.57Zm6.01 12.4q0-.45.17-.86.17-.4.46-.69.29-.29.69-.47.41-.17.87-.17.47 0 .87.17.39.18.69.47.3.29.47.69.18.41.18.86 0 .46-.18.86-.17.4-.47.69-.3.29-.69.46-.4.16-.87.16-.46 0-.87-.16-.4-.17-.69-.46-.29-.29-.46-.69-.17-.4-.17-.86Zm6.89 0q0-.45.17-.86.16-.4.45-.69.29-.29.7-.47.41-.17.87-.17t.86.17q.4.18.7.47.3.29.47.69.17.41.17.86 0 .46-.17.86-.17.4-.47.69-.3.29-.7.46-.4.16-.86.16-.46 0-.87-.16-.41-.17-.7-.46-.29-.29-.45-.69-.17-.4-.17-.86Zm6.89 0q0-.45.17-.86.16-.4.45-.69.29-.29.7-.47.4-.17.87-.17.46 0 .86.17.4.18.7.47.29.29.47.69.17.41.17.86 0 .46-.17.86-.18.4-.47.69-.3.29-.7.46-.4.16-.86.16-.47 0-.87-.16-.41-.17-.7-.46-.29-.29-.45-.69-.17-.4-.17-.86Z"/></svg>